<svg id="visual" viewBox="0 0 1440 1024" width="1440" height="1024" xmlns="http://www.w3.org/2000/svg" xmlns:xlink="http://www.w3.org/1999/xlink" version="1.1"><rect x="0" y="0" width="1440" height="1024" fill="#001220"></rect><defs><linearGradient id="grad1_0" x1="28.9%" y1="100%" x2="100%" y2="0%"><stop offset="21.875%" stop-color="#001220" stop-opacity="1"></stop><stop offset="78.125%" stop-color="#001220" stop-opacity="1"></stop></linearGradient></defs><defs><linearGradient id="grad2_0" x1="0%" y1="100%" x2="71.1%" y2="0%"><stop offset="21.875%" stop-color="#001220" stop-opacity="1"></stop><stop offset="78.125%" stop-color="#001220" stop-opacity="1"></stop></linearGradient></defs><g transform="translate(1440, 1024)"><path d="M-497 0C-523.5 -80.5 -550 -160.9 -522.9 -216.6C-495.8 -272.3 -415 -303.2 -359.9 -359.9C-304.8 -416.7 -275.5 -499.2 -219.8 -530.6C-164.1 -561.9 -82 -541.9 0 -522L0 0Z" fill="#FBAE3C"></path></g><g transform="translate(0, 0)"><path d="M495 0C501.7 68.7 508.5 137.3 488.7 202.4C469 267.5 422.8 329.1 368.4 368.4C314 407.7 251.4 424.9 188.7 455.5C125.9 486.1 62.9 530.2 0 574.3L0 0Z" fill="#FBAE3C"></path></g></svg>